<?xml version="1.0" encoding="UTF-8" standalone="no"?>
<!-- Created with Inkscape (http://www.inkscape.org/) -->

<svg
   xmlns:dc="http://purl.org/dc/elements/1.1/"
   xmlns:cc="http://creativecommons.org/ns#"
   xmlns:rdf="http://www.w3.org/1999/02/22-rdf-syntax-ns#"
   xmlns:svg="http://www.w3.org/2000/svg"
   xmlns="http://www.w3.org/2000/svg"
   xmlns:sodipodi="http://sodipodi.sourceforge.net/DTD/sodipodi-0.dtd"
   xmlns:inkscape="http://www.inkscape.org/namespaces/inkscape"
   width="64.401047"
   height="21.221855"
   id="svg3128"
   version="1.1"
   inkscape:version="0.48.4 r9939"
   sodipodi:docname="logo.svg">
  <defs
     id="defs3130" />
  <sodipodi:namedview
     id="base"
     pagecolor="#ffffff"
     bordercolor="#666666"
     borderopacity="1.0"
     inkscape:pageopacity="0.0"
     inkscape:pageshadow="2"
     inkscape:zoom="3.959798"
     inkscape:cx="87.734765"
     inkscape:cy="-8.8721058"
     inkscape:document-units="px"
     inkscape:current-layer="layer1"
     showgrid="false"
     inkscape:window-width="1215"
     inkscape:window-height="1000"
     inkscape:window-x="65"
     inkscape:window-y="24"
     inkscape:window-maximized="1"
     fit-margin-top="0"
     fit-margin-left="0"
     fit-margin-right="0"
     fit-margin-bottom="0" />
  <metadata
     id="metadata3133">
    <rdf:RDF>
      <cc:Work
         rdf:about="">
        <dc:format>image/svg+xml</dc:format>
        <dc:type
           rdf:resource="http://purl.org/dc/dcmitype/StillImage" />
        <dc:title />
      </cc:Work>
    </rdf:RDF>
  </metadata>
  <g
     inkscape:label="Layer 1"
     inkscape:groupmode="layer"
     id="layer1"
     transform="translate(-39.228043,-30.322684)">
    <g
       id="g2997">
      <path
         inkscape:connector-curvature="0"
         id="path4976-2-5"
         d="m 81.623503,45.192304 c -1.45743,-0.82293 -1.85465,-1.57397 -1.85465,-3.5066 0,-1.83038 0.77081,-2.9787 2.42553,-3.61343 2.39622,-0.91913 5.25304,0.76055 5.25304,3.08857 l 0,1.10645 -2.79221,0 c -2.49882,0 -2.79222,0.0637 -2.79222,0.60686 0,1.27121 1.96277,1.8357 4.30158,1.23711 0.8866,-0.2269 0.97442,-0.17919 0.87257,0.47388 -0.1988,1.27456 -3.56337,1.65191 -5.41364,0.60716 l 0,0 z m 3.72976,-4.69523 c 0,-0.26256 -0.39265,-0.71563 -0.87257,-1.00683 -0.8083,-0.49043 -0.93683,-0.49043 -1.74513,0 -1.47037,0.89219 -1.12232,1.4842 0.87257,1.4842 1.30643,0 1.74513,-0.12 1.74513,-0.47737 z"
         style="fill:#000080" />
      <path
         inkscape:connector-curvature="0"
         id="path4978-9-6"
         d="m 86.828083,49.160344 c -0.861,-0.98862 -0.861,-2.20039 0,-3.18902 0.53873,-0.6186 0.95683,-0.77571 2.06424,-0.77571 1.21084,0 1.38868,-0.0819 1.38868,-0.63989 0,-0.90379 -1.21662,-1.37967 -2.54064,-0.99378 -0.97845,0.28517 -1.03737,0.26046 -1.03737,-0.43476 0,-0.63369 0.17759,-0.76768 1.26592,-0.95508 1.57592,-0.27137 3.29418,0.2819 3.72126,1.1982 0.1745,0.37435 0.37947,1.93368 0.45551,3.46518 l 0.13826,2.78455 -1.00149,0 c -0.72725,0 -1.00148,-0.13609 -1.00148,-0.49699 0,-0.41198 -0.12406,-0.38496 -0.7252,0.15805 -0.96201,0.86888 -1.90211,0.82727 -2.7277,-0.12071 z m 2.8412,-0.98037 c 0.3483,-0.28012 0.61172,-0.82446 0.61172,-1.26413 0,-0.64307 -0.13472,-0.77214 -0.80604,-0.77214 -1.38366,0 -2.20401,1.50835 -1.18941,2.1869 0.63615,0.42543 0.67237,0.42149 1.38373,-0.15062 z"
         style="fill:#000080" />
      <path
         inkscape:connector-curvature="0"
         id="path4980-3-0"
         d="m 90.584473,42.285964 c -1.21717,-0.43873 -1.70848,-1.15006 -1.70848,-2.47365 0,-1.86499 1.66996,-3.00124 3.90139,-2.65454 0.73577,0.11429 0.92004,0.24656 0.92004,0.66024 0,0.47946 -0.0855,0.50932 -1.16866,0.4082 -1.00265,-0.0935 -1.23096,-0.0354 -1.60715,0.40937 -0.55947,0.66152 -0.56145,1.72849 -0.004,2.38713 0.36327,0.42955 0.62538,0.50064 1.60715,0.43598 1.04923,-0.0691 1.17307,-0.0271 1.17307,0.3976 0,0.75526 -1.59781,0.97581 -3.11295,0.42967 z"
         style="fill:#ff0000" />
      <path
         inkscape:connector-curvature="0"
         id="path4982-4-4"
         d="m 94.054573,43.860314 0,-2.5 0.58441,0 0.58442,0 0,0.98484 c 0,0.54167 0.0519,0.98486 0.11537,0.98486 0.0635,0 0.33827,-0.13637 0.6107,-0.30304 0.56959,-0.34848 0.81908,-0.37027 1.49533,-0.13063 0.65259,0.23127 0.89548,0.84819 0.89548,2.27445 l 0,1.18952 -0.55568,0 -0.55567,0 -0.13062,-1.32167 c -0.0718,-0.72691 -0.20984,-1.38328 -0.30668,-1.4586 -0.0969,-0.0754 -0.39772,-0.0937 -0.66861,-0.0408 -0.58686,0.11456 -0.89688,0.81346 -0.89854,2.02561 -0.001,0.78263 -0.0109,0.79545 -0.5855,0.79545 l -0.58441,0 0,-2.5 z"
         style="fill:#000080" />
      <path
         inkscape:connector-curvature="0"
         id="path4984-2-3"
         d="m 98.033913,42.897994 c -0.81491,-0.36997 -1.13898,-0.9395 -1.13898,-2.00167 0,-0.65031 0.10505,-1.05187 0.35993,-1.37591 0.44189,-0.56176 1.42561,-0.90821 2.13586,-0.75222 0.735147,0.16147 1.432777,1.03806 1.432777,1.80034 l 0,0.6113 -1.428567,0 c -1.27847,0 -1.42857,0.0352 -1.42857,0.33528 0,0.69905 1.00474,1.01452 2.187497,0.68683 0.41496,-0.11497 0.49107,-0.0818 0.49107,0.21395 0,0.45471 -0.17212,0.5479 -1.201097,0.65033 -0.52777,0.0525 -1.0648,-0.0115 -1.40992,-0.16823 l 0,0 z m 1.71816,-2.69618 c 0,-0.14506 -0.20089,-0.39538 -0.44643,-0.55626 -0.41354,-0.27096 -0.47931,-0.27096 -0.89285,0 -0.75228,0.49292 -0.57421,0.82 0.44643,0.82 0.6684,0 0.89285,-0.0663 0.89285,-0.26374 z"
         style="fill:#000080" />
      <path
         inkscape:connector-curvature="0"
         id="path4986-9-8"
         d="m 100.95052,43.345414 0,-2.05357 0.53572,0 c 0.43482,0 0.53678,0.0757 0.54139,0.40179 0.005,0.35211 0.0326,0.36676 0.22321,0.11845 0.24183,-0.31497 0.89433,-0.69881 1.18794,-0.69881 0.10467,0 0.19031,0.24107 0.19031,0.53572 0,0.47328 -0.0609,0.53571 -0.52296,0.53571 -0.86064,0 -1.08418,0.38923 -1.08418,1.88776 l 0,1.32653 -0.53571,0 -0.53572,0 0,-2.05358 z"
         style="fill:#000080" />
      <path
         inkscape:connector-curvature="0"
         id="path4974-6-3-4-7"
         d="m 76.675493,49.425354 c -1.18964,-0.7551 -2.11676,-4.45809 -2.11676,-8.45458 0,-2.62388 -0.23366,-3.44308 -0.98251,-3.44308 -0.54584,0 -0.98248,-0.58223 -0.98248,-1.30999 0,-0.7278 0.43664,-1.31003 0.98248,-1.31003 0.68621,0 0.98251,-0.69138 0.98251,-2.29249 0,-2.18335 0.10923,-2.2925 2.2925,-2.2925 2.18333,0 2.29248,0.10923 2.29248,2.2925 0,2.18334 0.10924,2.29249 2.29251,2.29249 1.85582,0 2.2925,0.24943 2.2925,1.31003 0,1.06354 -0.43668,1.30999 -2.32119,1.30999 l -2.32121,0 0.19256,4.74873 c 0.18781,4.63898 0.23402,4.75354 1.9937,4.95602 1.27251,0.14635 1.80125,0.57903 1.80125,1.47372 0,1.05492 -0.46509,1.26483 -2.78375,1.25647 -1.53105,-0.008 -3.15756,-0.24723 -3.61448,-0.53728 z"
         style="fill:#000080" />
      <path
         inkscape:connector-curvature="0"
         id="path4952-0-4"
         d="m 41.565253,46.664234 c -4.19531,-2.65625 -2.3609,-10.27873 2.47358,-10.27873 2.15371,0 4.34994,2.09967 4.71919,4.5117 l 0.28002,1.82908 -3.58446,0 c -3.82,0 -4.44794,0.49697 -2.79575,2.21256 0.78466,0.81474 2.99031,0.80507 4.96554,-0.022 0.62006,-0.25949 0.82204,-0.10317 0.82204,0.63586 0,1.96335 -4.40956,2.6756 -6.88016,1.11133 l 0,0 z m 4.53148,-6.52305 c 0,-1.59485 -2.50075,-2.42713 -3.66395,-1.21935 -1.16023,1.20475 -0.61769,1.85347 1.55015,1.85347 1.42124,0 2.1138,-0.20788 2.1138,-0.63412 z"
         style="fill:#ff0000" />
      <path
         inkscape:connector-curvature="0"
         id="path4950-3-0"
         d="m 49.802223,40.748914 0,-3.20263 0.68437,0 c 0.50988,0 0.68439,0.15391 0.68439,0.60343 l 0,0.60342 0.72132,-0.60342 c 0.97783,-0.81803 1.85978,-0.76128 2.54391,0.16369 0.4713,0.63724 0.56737,1.17957 0.56737,3.20264 l 0,2.43551 -0.82126,0 -0.82127,0 0,-2.29354 c 0,-2.53984 -0.34378,-3.23941 -1.31908,-2.68428 -0.72625,0.41337 -0.87099,0.93001 -0.87099,3.10916 0,1.79913 -0.0254,1.86866 -0.68439,1.86866 l -0.68437,0 0,-3.20264 z"
         style="fill:#ff0000" />
      <path
         inkscape:connector-curvature="0"
         id="path4960-6-9"
         d="m 52.958173,51.463124 c -0.1628,-0.0764 -0.29601,-0.33735 -0.29601,-0.57975 0,-0.37625 0.16597,-0.42399 1.134,-0.32616 1.23977,0.12523 1.53243,-0.0775 1.79787,-1.24609 0.17406,-0.76624 0.008,-0.84152 -0.66832,-0.30336 -0.69386,0.55192 -1.50934,0.44099 -2.15645,-0.29332 -1.09695,-1.24476 -0.60546,-4.36715 0.74348,-4.7232 0.65402,-0.17262 1.75422,0.23206 1.75422,0.64524 0,0.1399 0.10662,0.25437 0.2368,0.25437 0.13022,0 0.2368,-0.22412 0.2368,-0.49806 0,-0.36933 0.15787,-0.49807 0.61082,-0.49807 l 0.61082,0 -0.078,3.23119 c -0.094,3.89335 -0.29732,4.27023 -2.37275,4.3985 -0.6915,0.0427 -1.39046,0.0152 -1.55326,-0.0612 z m 2.262,-3.40011 c 0.1364,-0.17283 0.27257,-0.59306 0.30262,-0.93385 0.1155,-1.30949 -0.0228,-1.75275 -0.63884,-2.04792 -0.54704,-0.26213 -0.67216,-0.22902 -1.06561,0.28195 -0.24518,0.31843 -0.44577,0.87779 -0.44577,1.24304 0,1.33083 1.20019,2.27715 1.8476,1.45678 z"
         style="fill:#2c2ca0" />
      <path
         inkscape:connector-curvature="0"
         id="path4956-7-1"
         d="m 56.102343,39.564524 0,-6.38121 1.00738,0 1.00741,0 0,6.38121 0,6.38124 -1.00741,0 -1.00738,0 0,-6.38124 z"
         style="fill:#ff0000" />
      <path
         inkscape:connector-curvature="0"
         id="path4966-1-6"
         d="m 59.341423,42.646174 0,-4.67958 1.32332,0 1.3233,0 0,4.67958 0,4.67957 -1.3233,0 -1.32332,0 0,-4.67957 z"
         style="fill:#2c2ca0" />
      <path
         inkscape:connector-curvature="0"
         id="path4968-8-1"
         d="m 59.341423,35.626824 c 0,-0.85083 0.26471,-1.06354 1.32332,-1.06354 1.05863,0 1.3233,0.21274 1.3233,1.06354 0,0.85082 -0.2647,1.06354 -1.3233,1.06354 -1.05867,0 -1.32332,-0.21273 -1.32332,-1.06354 z"
         style="fill:#3737c8" />
      <path
         inkscape:connector-curvature="0"
         id="path4964-1-9"
         d="m 62.024143,51.190964 c -0.5178,-0.12414 -0.87533,-0.5323 -0.87533,-0.99913 0,-0.6703 0.30787,-0.78023 2.04245,-0.72952 1.80432,0.0526 2.05613,-0.0473 2.16002,-0.85977 0.0973,-0.76132 -0.17777,-1.0025 -1.59905,-1.40186 -1.99081,-0.55936 -2.70068,-1.34043 -2.70068,-2.97162 0,-1.57117 1.37268,-2.73809 3.22084,-2.73809 1.9366,0 2.71197,0.3599 2.71197,1.25878 0,0.59527 -0.37909,0.72834 -2.03194,0.71325 -1.59163,-0.0158 -2.06006,0.13783 -2.16167,0.70323 -0.0975,0.54338 0.39964,0.89351 2.01213,1.41658 1.17803,0.38214 2.25009,0.89019 2.38235,1.12899 0.47317,0.8543 0.29703,3.09189 -0.29542,3.75295 -0.62189,0.69393 -3.32059,1.09673 -4.86567,0.72621 z"
         style="fill:#ff0000" />
      <path
         inkscape:connector-curvature="0"
         id="path4970-8-9"
         d="m 65.943333,41.650334 0,-6.91046 1.1845,0 1.1845,0 0,2.79763 0,2.79763 1.04033,-0.95484 c 1.31945,-1.21104 2.58315,-1.21587 3.51569,-0.0122 0.56148,0.72393 0.76911,1.89421 0.89916,5.06769 l 0.16913,4.12637 -1.23279,0 -1.23278,0 0,-3.66937 c 0,-3.18371 -0.10324,-3.73391 -0.78062,-4.15685 -0.62002,-0.38716 -0.94495,-0.29571 -1.57934,0.44448 -0.64959,0.75795 -0.79871,1.53405 -0.79871,4.15687 l 0,3.22487 -1.18451,0 -1.18449,0 0,-6.91049 z"
         style="fill:#000080" />
    </g>
  </g>
</svg>
