<?xml version="1.0" encoding="UTF-8" standalone="no"?>
<!-- Created with Inkscape (http://www.inkscape.org/) -->

<svg
   xmlns:dc="http://purl.org/dc/elements/1.1/"
   xmlns:cc="http://creativecommons.org/ns#"
   xmlns:rdf="http://www.w3.org/1999/02/22-rdf-syntax-ns#"
   xmlns:svg="http://www.w3.org/2000/svg"
   xmlns="http://www.w3.org/2000/svg"
   xmlns:sodipodi="http://sodipodi.sourceforge.net/DTD/sodipodi-0.dtd"
   xmlns:inkscape="http://www.inkscape.org/namespaces/inkscape"
   width="16"
   height="16"
   id="svg3128"
   version="1.1"
   inkscape:version="0.48.4 r9939"
   sodipodi:docname="logo-small.svg">
  <defs
     id="defs3130" />
  <sodipodi:namedview
     id="base"
     pagecolor="#ffffff"
     bordercolor="#666666"
     borderopacity="1.0"
     inkscape:pageopacity="0.0"
     inkscape:pageshadow="2"
     inkscape:zoom="22.4"
     inkscape:cx="13.746869"
     inkscape:cy="6.0946165"
     inkscape:document-units="px"
     inkscape:current-layer="g2997"
     showgrid="false"
     inkscape:window-width="1215"
     inkscape:window-height="1000"
     inkscape:window-x="65"
     inkscape:window-y="24"
     inkscape:window-maximized="1"
     fit-margin-top="0"
     fit-margin-left="0"
     fit-margin-right="0"
     fit-margin-bottom="0"
     showguides="true"
     inkscape:guide-bbox="true">
    <sodipodi:guide
       orientation="0,1"
       position="4.4196428,0"
       id="guide3059" />
  </sodipodi:namedview>
  <metadata
     id="metadata3133">
    <rdf:RDF>
      <cc:Work
         rdf:about="">
        <dc:format>image/svg+xml</dc:format>
        <dc:type
           rdf:resource="http://purl.org/dc/dcmitype/StillImage" />
        <dc:title></dc:title>
      </cc:Work>
    </rdf:RDF>
  </metadata>
  <g
     inkscape:label="Layer 1"
     inkscape:groupmode="layer"
     id="layer1"
     transform="translate(-38.94852,-34.758027)">
    <g
       id="g2997">
      <path
         inkscape:connector-curvature="0"
         id="path4974-6-3-4-7-8"
         d="m 49.606402,49.524732 c -0.79875,-0.562479 -1.421239,-3.320865 -1.421239,-6.29788 0,-1.954549 -0.156885,-2.564777 -0.659679,-2.564777 -0.366489,0 -0.659659,-0.433709 -0.659659,-0.975822 0,-0.542144 0.29317,-0.975851 0.659659,-0.975851 0.460736,0 0.659679,-0.515014 0.659679,-1.707694 0,-1.626392 0.07334,-1.707699 1.539234,-1.707699 1.465936,0 1.539222,0.08136 1.539222,1.707699 0,1.626388 0.07335,1.707694 1.539243,1.707694 1.246037,0 1.539235,0.185801 1.539235,0.975851 0,0.792239 -0.293198,0.975822 -1.558499,0.975822 l -1.558512,0 0.12929,3.537365 c 0.126099,3.455612 0.157126,3.540947 1.338613,3.691777 0.854392,0.109017 1.209399,0.431323 1.209399,1.097785 0,0.785819 -0.312271,0.942181 -1.86907,0.935954 -1.027981,-0.006 -2.120056,-0.184164 -2.426842,-0.400224 z"
         style="fill:#000080" />
      <path
         inkscape:connector-curvature="0"
         id="path4952-0-4-6"
         d="m 41.670833,49.291633 c -3.764691,-2.227825 -2.11857,-8.620881 2.219684,-8.620881 1.932647,0 3.903449,1.761018 4.234798,3.784008 l 0.251277,1.534074 -3.21654,0 c -3.427903,0 -3.99139,0.416814 -2.508786,1.855694 0.70412,0.683331 2.683376,0.675224 4.455862,-0.01846 0.556415,-0.217638 0.737663,-0.08652 0.737663,0.533304 0,1.64668 -3.956949,2.244053 -6.173958,0.932079 l 0,0 z m 4.066355,-5.470949 c 0,-1.337622 -2.244067,-2.035664 -3.287871,-1.022682 -1.041141,1.010433 -0.55429,1.554522 1.391036,1.554522 1.27536,0 1.896835,-0.174352 1.896835,-0.53184 z"
         style="fill:#ff0000" />
    </g>
  </g>
</svg>
